<svg width="10" height="18" viewBox="0 0 10 18" fill="none" xmlns="http://www.w3.org/2000/svg">
<path d="M0.363281 3.51562C0.121094 3.40625 0.109375 3.07031 0.328125 2.50781C0.539062 1.98438 1 1.4375 1.71094 0.867188C2.42969 0.289063 3.47266 0 4.83984 0C6.51953 0 7.75391 0.402344 8.54297 1.20703C9.33203 2.00391 9.72656 3.07031 9.72656 4.40625C9.72656 5.52344 9.07422 6.80469 7.76953 8.25C6.47266 9.6875 5.82422 10.9453 5.82422 12.0234V12.293C5.82422 12.6445 5.64844 12.8203 5.29688 12.8203H4.28906C3.9375 12.8203 3.76172 12.6445 3.76172 12.293V11.8594C3.76172 10.5391 4.37109 9.18359 5.58984 7.79297C6.81641 6.39453 7.42969 5.24219 7.42969 4.33594C7.42969 3.38281 7.20703 2.71484 6.76172 2.33203C6.31641 1.94922 5.70312 1.75781 4.92188 1.75781C4.0625 1.75781 3.41406 1.91406 2.97656 2.22656C2.54688 2.53906 2.21875 2.96484 1.99219 3.50391C1.8125 3.92578 1.55859 4.0625 1.23047 3.91406L0.363281 3.51562ZM4.125 17.1562C3.77344 17.1562 3.59766 16.9805 3.59766 16.6289V15.1992C3.59766 14.8477 3.77344 14.6719 4.125 14.6719H5.4375C5.78906 14.6719 5.96484 14.8477 5.96484 15.1992V16.6289C5.96484 16.9805 5.78906 17.1562 5.4375 17.1562H4.125Z" fill="#99909C"/>
</svg>
