<svg width="15" height="15" viewBox="0 0 15 15" fill="none" xmlns="http://www.w3.org/2000/svg">
<path d="M3 14.2656L3 10.7656L10 10.7656L3 14.2656Z" fill="#99909C"/>
<g clip-path="url(#clip0_157_108)">
<rect width="15" height="11" rx="1" fill="#99909C"/>
<path d="M4.47852 8.5C4.30924 8.5 4.2653 8.39258 4.34668 8.17773L6.77832 1.7959C6.85319 1.59733 6.96061 1.49805 7.10059 1.49805H7.78418C7.92415 1.49805 8.03158 1.59733 8.10645 1.7959L10.5381 8.17773C10.6195 8.39258 10.5755 8.5 10.4062 8.5H9.9082C9.73568 8.5 9.61849 8.42025 9.55664 8.26074L8.94629 6.64453H5.93848L5.32812 8.26074C5.26628 8.42025 5.14909 8.5 4.97656 8.5H4.47852ZM6.24609 5.84375H8.63867L7.8916 3.89062C7.82324 3.70833 7.75488 3.50651 7.68652 3.28516C7.62142 3.0638 7.54329 2.74967 7.45215 2.34277H7.43262C7.34147 2.74967 7.26172 3.0638 7.19336 3.28516C7.12826 3.50651 7.06152 3.70833 6.99316 3.89062L6.24609 5.84375Z" fill="#E5E8FB"/>
</g>
<defs>
<clipPath id="clip0_157_108">
<rect width="15" height="11" rx="1" fill="white"/>
</clipPath>
</defs>
</svg>
