<svg width="17" height="16" viewBox="0 0 17 16" fill="none" xmlns="http://www.w3.org/2000/svg">
<mask id="path-1-inside-1_46_43" fill="white">
<path d="M1.52942 1.5293C3.46427 -0.405493 6.5386 -0.503969 8.59094 1.23145C10.6372 -0.359284 13.5965 -0.215113 15.4777 1.66602C17.5149 3.70354 17.5149 7.0064 15.4777 9.04395L8.52161 16L2.81262 10.2002L1.52942 8.91699C1.43162 8.81919 1.33952 8.7176 1.2511 8.61426L1.21692 8.5791L1.21887 8.57617C-0.503572 6.52384 -0.400776 3.45949 1.52942 1.5293Z"/>
</mask>
<path d="M1.52942 1.5293L0.822324 0.822178L0.822312 0.82219L1.52942 1.5293ZM8.59094 1.23145L7.94526 1.99505L8.56447 2.51864L9.20469 2.02095L8.59094 1.23145ZM15.4777 1.66602L16.1848 0.958957L16.1848 0.958909L15.4777 1.66602ZM15.4777 9.04395L16.1848 9.75105L16.1848 9.751L15.4777 9.04395ZM8.52161 16L7.80894 16.7015L8.516 17.4198L9.22871 16.7071L8.52161 16ZM2.81262 10.2002L3.52531 9.49867L3.51973 9.49309L2.81262 10.2002ZM1.52942 8.91699L0.822305 9.62409L0.822312 9.6241L1.52942 8.91699ZM1.2511 8.61426L2.01094 7.96415L1.99027 7.93999L1.96809 7.91718L1.2511 8.61426ZM1.21692 8.5791L0.384869 8.0244L-0.0633828 8.69678L0.499924 9.27618L1.21692 8.5791ZM1.21887 8.57617L2.05092 9.13087L2.46661 8.50734L1.98485 7.93331L1.21887 8.57617ZM1.52942 1.5293L2.23651 2.23642C3.80031 0.67267 6.28628 0.592258 7.94526 1.99505L8.59094 1.23145L9.23663 0.467841C6.79091 -1.6002 3.12824 -1.48366 0.822324 0.822178L1.52942 1.5293ZM8.59094 1.23145L9.20469 2.02095C10.8579 0.73576 13.2505 0.853044 14.7706 2.37312L15.4777 1.66602L16.1848 0.958909C13.9426 -1.28327 10.4165 -1.45433 7.9772 0.441939L8.59094 1.23145ZM15.4777 1.66602L14.7705 2.37307C16.4173 4.02007 16.4173 6.68986 14.7705 8.33689L15.4777 9.04395L16.1848 9.751C18.6125 7.32295 18.6125 3.387 16.1848 0.958957L15.4777 1.66602ZM15.4777 9.04395L14.7706 8.33684L7.8145 15.2929L8.52161 16L9.22871 16.7071L16.1848 9.75105L15.4777 9.04395ZM8.52161 16L9.23427 15.2985L3.52529 9.49869L2.81262 10.2002L2.09996 10.9017L7.80894 16.7015L8.52161 16ZM2.81262 10.2002L3.51973 9.49309L2.23653 8.20989L1.52942 8.91699L0.822312 9.6241L2.10552 10.9073L2.81262 10.2002ZM1.52942 8.91699L2.23653 8.20989C2.16136 8.13472 2.08704 8.05309 2.01094 7.96415L1.2511 8.61426L0.491253 9.26436C0.592003 9.38212 0.701879 9.50366 0.822305 9.62409L1.52942 8.91699ZM1.2511 8.61426L1.96809 7.91718L1.93391 7.88202L1.21692 8.5791L0.499924 9.27618L0.534104 9.31134L1.2511 8.61426ZM1.21692 8.5791L2.04897 9.1338L2.05092 9.13087L1.21887 8.57617L0.386822 8.02147L0.384869 8.0244L1.21692 8.5791ZM1.21887 8.57617L1.98485 7.93331C0.592585 6.27439 0.676479 3.79645 2.23653 2.2364L1.52942 1.5293L0.822312 0.82219C-1.47803 3.12253 -1.59973 6.7733 0.452889 9.21903L1.21887 8.57617Z" fill="#786B77" mask="url(#path-1-inside-1_46_43)"/>
</svg>
