<svg width="17" height="16" viewBox="0 0 17 16" fill="none" xmlns="http://www.w3.org/2000/svg">
<mask id="path-1-inside-1_46_43" fill="white">
<path d="M1.5293 1.5293C3.46415 -0.405493 6.53847 -0.503969 8.59082 1.23145C10.6371 -0.359284 13.5964 -0.215113 15.4775 1.66602C17.5148 3.70354 17.5148 7.0064 15.4775 9.04395L8.52148 16L2.8125 10.2002L1.5293 8.91699C1.4315 8.81919 1.3394 8.7176 1.25098 8.61426L1.2168 8.5791L1.21875 8.57617C-0.503694 6.52384 -0.400898 3.45949 1.5293 1.5293Z"/>
</mask>
<path d="M1.5293 1.5293L0.822202 0.822178L0.82219 0.82219L1.5293 1.5293ZM8.59082 1.23145L7.94514 1.99505L8.56435 2.51864L9.20456 2.02095L8.59082 1.23145ZM15.4775 1.66602L16.1847 0.958957L16.1846 0.958909L15.4775 1.66602ZM15.4775 9.04395L16.1846 9.75105L16.1847 9.751L15.4775 9.04395ZM8.52148 16L7.80882 16.7015L8.51588 17.4198L9.22859 16.7071L8.52148 16ZM2.8125 10.2002L3.52519 9.49867L3.51961 9.49309L2.8125 10.2002ZM1.5293 8.91699L0.822183 9.62409L0.82219 9.6241L1.5293 8.91699ZM1.25098 8.61426L2.01082 7.96415L1.99014 7.93999L1.96797 7.91718L1.25098 8.61426ZM1.2168 8.5791L0.384747 8.0244L-0.0635049 8.69678L0.499802 9.27618L1.2168 8.5791ZM1.21875 8.57617L2.0508 9.13087L2.46649 8.50734L1.98473 7.93331L1.21875 8.57617ZM1.5293 1.5293L2.23639 2.23642C3.80019 0.67267 6.28616 0.592258 7.94514 1.99505L8.59082 1.23145L9.23651 0.467841C6.79079 -1.6002 3.12811 -1.48366 0.822202 0.822178L1.5293 1.5293ZM8.59082 1.23145L9.20456 2.02095C10.8578 0.73576 13.2504 0.853044 14.7704 2.37312L15.4775 1.66602L16.1846 0.958909C13.9425 -1.28327 10.4164 -1.45433 7.97708 0.441939L8.59082 1.23145ZM15.4775 1.66602L14.7704 2.37307C16.4172 4.02007 16.4172 6.68986 14.7704 8.3369L15.4775 9.04395L16.1847 9.751C18.6124 7.32295 18.6124 3.387 16.1847 0.958957L15.4775 1.66602ZM15.4775 9.04395L14.7704 8.33684L7.81438 15.2929L8.52148 16L9.22859 16.7071L16.1846 9.75105L15.4775 9.04395ZM8.52148 16L9.23415 15.2985L3.52516 9.49869L2.8125 10.2002L2.09984 10.9017L7.80882 16.7015L8.52148 16ZM2.8125 10.2002L3.51961 9.49309L2.2364 8.20989L1.5293 8.91699L0.82219 9.6241L2.10539 10.9073L2.8125 10.2002ZM1.5293 8.91699L2.23641 8.20989C2.16124 8.13472 2.08691 8.05309 2.01082 7.96415L1.25098 8.61426L0.491131 9.26436C0.591881 9.38212 0.701757 9.50366 0.822183 9.62409L1.5293 8.91699ZM1.25098 8.61426L1.96797 7.91718L1.93379 7.88202L1.2168 8.5791L0.499802 9.27618L0.533982 9.31134L1.25098 8.61426ZM1.2168 8.5791L2.04885 9.1338L2.0508 9.13087L1.21875 8.57617L0.3867 8.02147L0.384747 8.0244L1.2168 8.5791ZM1.21875 8.57617L1.98473 7.93331C0.592463 6.27439 0.676357 3.79645 2.2364 2.2364L1.5293 1.5293L0.82219 0.82219C-1.47815 3.12253 -1.59985 6.7733 0.452767 9.21903L1.21875 8.57617Z" fill="#786B77" mask="url(#path-1-inside-1_46_43)"/>
</svg>
